General                          : ChattChitto RG - Movies [R2L]
==========
Complete name                    : How Do You Know 2010 720p BRRip H264 [ChattChitto RG]
Format                           : MPEG-4
Format profile                   : Base Media
Codec ID                         : isom
File size                        : 2.21 GiB
Duration                         : 2h 0mn
Overall bit rate                 : 2 619 Kbps
Encoded date                     : UTC 2011-03-03 19:28:29

Video
==========
ID                               : 1
Format                           : AVC
Format/Info                      : Advanced Video Codec
Format profile                   : High@L4.1
Format settings, CABAC           : Yes
Format settings, ReFrames        : 4 frames
Codec ID                         : avc1
Codec ID/Info                    : Advanced Video Coding
Duration                         : 2h 0mn
Bit rate mode                    : Variable
Bit rate                         : 2 300 Kbps
Maximum bit rate                 : 18.0 Mbps
Width                            : 1 280 pixels
Height                           : 688 pixels
Display aspect ratio             : 1.860
Frame rate mode                  : Constant
Frame rate                       : 23.976 fps
Color space                      : YUV
Chroma subsampling               : 4:2:0
Bit depth                        : 8 bits
Scan type                        : Progressive
Bits/(Pixel*Frame)               : 0.109
Stream size                      : 1.94 GiB (88%)
Writing library                  : x264 core 84 r1400M 20fa784
Encoded date                     : UTC 2011-03-02 16:06:31

Audio
==========
ID                               : 2
Format                           : AAC
Format/Info                      : Advanced Audio Codec
Format profile                   : LC
Codec ID                         : 40
Duration                         : 2h 0mn
Bit rate mode                    : Variable
Bit rate                         : 317 Kbps
Maximum bit rate                 : 433 Kbps
Channel(s)                       : 6 channels
Channel positions                : Front: L C R, Side: L R, LFE
Sampling rate                    : 48.0 KHz
Compression mode                 : Lossy
Stream size                      : 274 MiB (12%)
Encoded date                     : UTC 2011-03-03 19:30:01

Subtitles                        : None


----------------------------------------------------
IMDB Link: http://www.imdb.com/title/tt1341188/
----------------------------------------------------



Screen Shots:
==============    
http://chattchitto.net/chattchittorg/movies/brrip/2011/how_do_you_know/3.png 
http://chattchitto.net/chattchittorg/movies/brrip/2011/how_do_you_know/4.png 
http://chattchitto.net/chattchittorg/movies/brrip/2011/how_do_you_know/5.png 
http://chattchitto.net/chattchittorg/movies/brrip/2011/how_do_you_know/6.png 
http://chattchitto.net/chattchittorg/movies/brrip/2011/how_do_you_know/7.png



ScreenShots Comparison:
=========================  
http://screenshotcomparison.com/comparison/33074



Plot:
======
After being cut from the USA softball team and feeling a bit past her prime, Lisa finds herself evaluating her life and in the middle of a love triangle, as a corporate guy in crisis competes with her current, baseball-playing beau.



Release Info:
==============
original name .... : How Do You Know 2010 720p BRRip H264 [ChattChitto RG]
ripper.............: CHD
encoder............: Recalled2Life (R2L)
video codec........: H264/.MP4
video bitrate......: 2300 Kbps
audio codec........: AAC-LC
aspect ratio.......: 1.860
resolution.........: 1280 x 688
genre..............: Comedy | Drama | Romance
runtime............: 2h 0mn
language...........: English
rating.............: PG-13
subtitles..........: None
sample.............: Yes
2ch Audio..........: 2ch Audio for XBox Viewers
Compatibility .....: XBox | PS3 | WD Live



Source:
========
How.Do.You.Know.2010.BluRay.720p.DTS.x264-CHD  THANKS!!



Notes:
=======
ChattChitto RG Encourages Burning this Film with ConvertXtoDVD and Playing with VLC media player.
XBox 360 | PS3 | WD Live - Compatible 
Enhanced for your viewing pleasure ;)